# xmcd
#
# Track frame offsets:
#	150
#	7979
#	24275
#	44533
#	58498
#	77547
#	93553
#	103267
#	128362
#	137376
#	153957
#	168576
#	188833
#	209671
#	226185
#	235866
#	246041
#	259963
#
# Disc length: 3648 seconds
#
# Revision: 2
# Processed by: cddbd v1.5.2PL0 Copyright (c) Steve Scherf et al.
# Submitted via: audiograbber 1.83.01
#
DISCID=e90e3e12
DTITLE=Various Artist - Yup, I Said That:
DYEAR=2010
DGENRE=Country
TTITLE0=Wesley "Geno" Leech - Quonset Hut
TTITLE1=Shanghaied on the Willamette - Tangueray Martini-O (Pacific Coast Versi
TTITLE1=on)
TTITLE2=Stephen Snyder and Kate Katzberg - The Prettiest Girl in New York
TTITLE3=Robbie O'Connell - Frederick's of Galilee
TTITLE4=Peter Breen - Providence Waltz
TTITLE5=Jody Gibson - Foxwoods Polka
TTITLE6=Joanne Souza - Catch and Release
TTITLE7=Pendragon - Restless Waters
TTITLE8=Capt. Daniel "Dano" Quinn - The Mary
TTITLE9=Carl Thornton - Keep on Fishin'
TTITLE10=The Short Sisters - Winnebacome, Winnebago
TTITLE11=Michael O'Leary - The Last of the Eastern Rigs
TTITLE12=Marc Bernier - Eldred's One Gun Batt'ry
TTITLE13=Pendragon - The Palatine
TTITLE14=Marc Bernier - The Wall
TTITLE15=The Boarding Party - Tangueray Martini-O (East Coast Version)
TTITLE16=Walter McDonough - Keep on Fishin'
TTITLE17=Charlie Ipcar - Frederick's of Woolloomooloo
EXTD=A Compilation of Artists Performing the 'Classic' Hits of Jon Campbell
EXTT0=
EXTT1=
EXTT2=
EXTT3=
EXTT4=
EXTT5=
EXTT6=
EXTT7=
EXTT8=
EXTT9=
EXTT10=
EXTT11=
EXTT12=
EXTT13=
EXTT14=
EXTT15=
EXTT16=
EXTT17=
PLAYORDER=
